<?xml version="1.0" encoding="UTF-8"?>
<svg id="Layer_2" data-name="Layer 2" xmlns="http://www.w3.org/2000/svg" viewBox="0 0 72.42 101.57">
  <defs>
    <style>
      .cls-1 {
        fill: #fff;
        stroke-width: 0px;
      }
    </style>
  </defs>
  <g id="Layer_1-2" data-name="Layer 1">
    <g>
      <path class="cls-1" d="m12.85,41.61l16.35-.14.09,9.64-28.83.25L0,.11l12.48-.11.37,41.61Z"/>
      <path class="cls-1" d="m70.3,49.34l-28.25.25c.22,2.53,1.05,4.46,2.5,5.78,1.45,1.33,3.22,1.98,5.31,1.96,3.11-.03,5.27-1.36,6.46-4l13.29-.12c-.66,2.68-1.86,5.1-3.62,7.26s-3.97,3.86-6.63,5.09c-2.67,1.24-5.65,1.88-8.96,1.91-3.99.04-7.55-.78-10.68-2.46-3.13-1.68-5.58-4.09-7.36-7.24-1.78-3.15-2.69-6.84-2.73-11.07-.04-4.23.79-7.94,2.49-11.12,1.7-3.18,4.1-5.63,7.2-7.36,3.1-1.73,6.67-2.61,10.71-2.65,3.94-.04,7.45.76,10.53,2.39,3.08,1.63,5.5,3.97,7.25,7.02,1.75,3.05,2.65,6.62,2.69,10.71.01,1.17-.05,2.38-.19,3.65Zm-12.62-6.82c-.02-2.14-.76-3.84-2.24-5.09-1.47-1.25-3.3-1.87-5.49-1.85-2.09.02-3.85.64-5.28,1.87-1.42,1.23-2.3,2.97-2.62,5.21l15.62-.14Z"/>
      <path class="cls-1" d="m40.5,99.11c-3.2-1.67-5.73-4.08-7.58-7.23-1.85-3.15-2.8-6.84-2.84-11.07-.04-4.18.85-7.88,2.68-11.08,1.82-3.2,4.33-5.67,7.53-7.4,3.2-1.73,6.79-2.61,10.78-2.65,3.99-.04,7.6.79,10.83,2.46,3.23,1.68,5.78,4.1,7.66,7.27,1.88,3.17,2.83,6.85,2.87,11.03.04,4.19-.87,7.88-2.71,11.08s-4.38,5.67-7.6,7.4c-3.22,1.73-6.83,2.62-10.82,2.65-3.99.04-7.59-.78-10.79-2.46Zm16.76-11.03c1.67-1.77,2.48-4.28,2.45-7.54-.03-3.26-.87-5.76-2.51-7.5-1.65-1.74-3.66-2.59-6.05-2.57-2.43.02-4.44.9-6.03,2.65-1.59,1.74-2.37,4.27-2.34,7.58.03,3.26.84,5.76,2.44,7.5,1.6,1.74,3.59,2.6,5.97,2.58,2.38-.02,4.41-.92,6.07-2.68Z"/>
    </g>
    <g>
      <path class="cls-1" d="m50.23,28.11V10.56l-3.53,6.73,1.88,2.35s-4.24,6.12-8.94.47l1.41-1.88-3.76-3.18,3.21,13.07h9.73Z"/>
      <path class="cls-1" d="m50.23,28.11V10.56s3.53,6.73,3.53,6.73l-1.88,2.35s4.24,6.12,8.94.47l-1.41-1.88,3.76-3.18-3.21,13.07h-9.73Z"/>
      <circle class="cls-1" cx="37.29" cy="13.7" r=".73"/>
      <circle class="cls-1" cx="63.17" cy="13.7" r=".73"/>
      <circle class="cls-1" cx="50.23" cy="8.58" r="1.47"/>
    </g>
  </g>
</svg>